<svg width="24" height="24" viewBox="0 0 24 24" fill="#fff" xmlns="http://www.w3.org/2000/svg">
<path fill-rule="evenodd" clip-rule="evenodd" d="M11 2.25C6.16751 2.25 2.25 6.16751 2.25 11C2.25 15.8325 6.16751 19.75 11 19.75C13.0292 19.75 14.8971 19.0592 16.3814 17.9L20.9697 22.4884C21.2626 22.7813 21.7374 22.7813 22.0303 22.4884C22.3232 22.1955 22.3232 21.7206 22.0303 21.4277L17.4812 16.8786C18.891 15.3252 19.75 13.2629 19.75 11C19.75 6.16751 15.8325 2.25 11 2.25ZM3.75 11C3.75 6.99594 6.99594 3.75 11 3.75C15.0041 3.75 18.25 6.99594 18.25 11C18.25 15.0041 15.0041 18.25 11 18.25C6.99594 18.25 3.75 15.0041 3.75 11Z" />
</svg>
