<?xml version="1.0"?><svg xmlns="http://www.w3.org/2000/svg"  viewBox="0 0 30 30" width="90px" height="90px">    <path d="M 6 4 C 4.895 4 4 4.895 4 6 L 4 24 C 4 25.105 4.895 26 6 26 L 24 26 C 25.105 26 26 25.105 26 24 L 26 6 C 26 4.895 25.105 4 24 4 L 6 4 z M 14 8 C 17.309 8 20 10.691 20 14 C 20 15.294 19.583766 16.489703 18.884766 17.470703 L 21.707031 20.292969 C 22.098031 20.683969 22.098031 21.316031 21.707031 21.707031 C 21.512031 21.902031 21.256 22 21 22 C 20.744 22 20.487969 21.902031 20.292969 21.707031 L 17.470703 18.884766 C 16.489703 19.583766 15.294 20 14 20 C 10.691 20 8 17.309 8 14 C 8 10.691 10.691 8 14 8 z M 14 10 A 4 4 0 0 0 10 14 A 4 4 0 0 0 14 18 A 4 4 0 0 0 18 14 A 4 4 0 0 0 14 10 z"/></svg>